<svg width="40" height="40" viewBox="0 0 40 40" fill="none" xmlns="http://www.w3.org/2000/svg">
<g id="material-symbols:check-small-rounded">
<path id="Vector" d="M16.7765 23.2145L17.13 23.5681L17.4836 23.2145L25.95 14.7482C26.1101 14.588 26.3134 14.5 26.6009 14.5C26.8884 14.5 27.0917 14.588 27.2518 14.7482L27.6004 14.3996L27.2518 14.7482C27.412 14.9083 27.5 15.1116 27.5 15.3991C27.5 15.6866 27.412 15.8899 27.2518 16.05L27.6054 16.4036L27.2518 16.05L17.781 25.5209C17.5814 25.7204 17.3714 25.8049 17.13 25.8049C16.8887 25.8049 16.6787 25.7204 16.4791 25.5209L12.7482 21.7899L12.4005 22.1376L12.7482 21.7899C12.588 21.6298 12.5 21.4265 12.5 21.139C12.5 20.8515 12.588 20.6482 12.7482 20.4881C12.9083 20.3279 13.1116 20.2399 13.3991 20.2399C13.6866 20.2399 13.8899 20.3279 14.05 20.4881L16.7765 23.2145Z" fill="#23856D" stroke="#23856D"/>
</g>
</svg>
