<svg width="40" height="40" viewBox="0 0 40 40" fill="none" xmlns="http://www.w3.org/2000/svg">
<g id="gridicons:stats">
<path id="Vector" d="M31.6667 32.1667H32.1667V31.6667V8.33333V7.83333H31.6667H8.33333H7.83333V8.33333V31.6667V32.1667H8.33333H31.6667ZM8.33333 5.5H31.6667C32.4181 5.5 33.1388 5.79851 33.6701 6.32986C34.2015 6.86122 34.5 7.58189 34.5 8.33333V31.6667C34.5 32.4181 34.2015 33.1388 33.6701 33.6701C33.1388 34.2015 32.4181 34.5 31.6667 34.5H8.33333C7.58189 34.5 6.86122 34.2015 6.32986 33.6701C5.79851 33.1388 5.5 32.4181 5.5 31.6667V8.33333C5.5 7.58189 5.79851 6.86122 6.32986 6.32986C6.86122 5.79851 7.58189 5.5 8.33333 5.5ZM14.5 27.8333H12.1667V20.5H14.5V27.8333ZM21.1667 27.8333H18.8333V12.1667H21.1667V27.8333ZM27.8333 27.8333H25.5V17.1667H27.8333V27.8333Z" fill="#31A0FE" stroke="#31A0FE"/>
</g>
</svg>
