<svg width="40" height="40" viewBox="0 0 40 40" fill="none" xmlns="http://www.w3.org/2000/svg">
<g id="ic:outline-email">
<path id="Vector" d="M33.598 10.4241L35.0764 9.50008H33.333H6.66634H4.92294L6.40134 10.4241L19.7347 18.7574L19.9997 18.923L20.2647 18.7574L33.598 10.4241ZM33.333 30.5001H33.833V30.0001V13.3334V12.4313L33.068 12.9094L19.9997 21.0771L6.93134 12.9094L6.16634 12.4313V13.3334V30.0001V30.5001H6.66634H33.333ZM33.333 7.16675C34.8902 7.16675 36.1663 8.44289 36.1663 10.0001V30.0001C36.1663 31.5573 34.8902 32.8334 33.333 32.8334H6.66634C5.10915 32.8334 3.83301 31.5573 3.83301 30.0001V10.0001C3.83301 8.44289 5.10915 7.16675 6.66634 7.16675H33.333Z" fill="#EC5C2E" stroke="#EC5C2E"/>
</g>
</svg>
