<svg width="40" height="40" viewBox="0 0 40 40" fill="none" xmlns="http://www.w3.org/2000/svg">
<g id="mdi:cards-heart">
<path id="Vector" d="M17.9196 33.0136L17.9189 33.0129C13.6174 29.1124 10.0871 25.9066 7.62639 22.8961C5.17116 19.8923 3.83301 17.144 3.83301 14.1667C3.83301 9.2934 7.64189 5.5 12.4997 5.5C15.2485 5.5 17.8951 6.78223 19.6203 8.79231L19.9997 9.23438L20.3791 8.79231C22.1043 6.78223 24.7508 5.5 27.4997 5.5C32.3575 5.5 36.1663 9.2934 36.1663 14.1667C36.1663 17.144 34.8282 19.8923 32.373 22.8961C29.9122 25.9066 26.382 29.1124 22.0805 33.0129L22.0798 33.0136L19.9997 34.9072L17.9196 33.0136Z" fill="white" stroke="white"/>
</g>
</svg>
