<svg width="15" height="14" viewBox="0 0 15 14" fill="none" xmlns="http://www.w3.org/2000/svg">
<g id="star 1" clip-path="url(#clip0_5098_661)">
<path id="Vector" d="M13.3201 4.83195L9.44806 4.49595L7.93606 0.935951C7.66406 0.287951 6.73606 0.287951 6.46406 0.935951L4.95206 4.50395L1.08806 4.83195C0.384058 4.88795 0.096058 5.76795 0.632058 6.23195L3.56806 8.77595L2.68806 12.552C2.52806 13.24 3.27206 13.784 3.88006 13.416L7.20006 11.416L10.5201 13.424C11.1281 13.792 11.8721 13.248 11.7121 12.56L10.8321 8.77595L13.7681 6.23195C14.3041 5.76795 14.0241 4.88795 13.3201 4.83195ZM7.20006 9.91995L4.19206 11.736L4.99206 8.31195L2.33606 6.00795L5.84006 5.70395L7.20006 2.47995L8.56806 5.71195L12.0721 6.01595L9.41606 8.31995L10.2161 11.744L7.20006 9.91995Z" fill="#737373"/>
</g>
<defs>
<clipPath id="clip0_5098_661">
<rect width="14.4" height="13.8" fill="white"/>
</clipPath>
</defs>
</svg>
